<svg width="436" height="204" xmlns="http://www.w3.org/2000/svg"
     viewBox="270 207 109 51">
    <svg width="9" height="11" xmlns="http://www.w3.org/2000/svg"
         viewBox="0 0.178 9 10.644" fill="#a0a8ae" x="370" y="224">
        <svg xmlns="http://www.w3.org/2000/svg" width="9" height="11"
             viewBox="0.342 0.665 8.358 9.884">
            <path paint-order="stroke fill markers" fill-rule="evenodd"
                  d="M1.986 5.93c.039 2.33 1.527 3.288 3.25 3.288 1.232 0 1.976-.215 2.622-.489l.294 1.233c-.607.274-1.644.587-3.152.587-2.916 0-4.658-1.918-4.658-4.775C.342 2.916 2.025.665 4.785.665 7.878.665 8.7 3.385 8.7 5.128c0 .352-.04.626-.059.802H1.986zm5.05-1.233c.02-1.096-.45-2.8-2.388-2.8-1.742 0-2.505 1.606-2.643 2.8h5.03z"/>
        </svg>
    </svg>
    <svg width="9" height="11" xmlns="http://www.w3.org/2000/svg"
         viewBox="0.332 0 8.337 11" fill="#a0a8ae" x="361" y="224">
        <svg xmlns="http://www.w3.org/2000/svg" width="9" height="11"
             viewBox="0.691 0.684 7.477 9.865">
            <path paint-order="stroke fill markers" fill-rule="evenodd"
                  d="M8.129 10.001c-.45.235-1.449.548-2.721.548-2.857 0-4.717-1.938-4.717-4.835 0-2.916 1.996-5.03 5.089-5.03 1.018 0 1.919.255 2.388.49l-.391 1.33c-.411-.234-1.058-.45-1.997-.45-2.173 0-3.347 1.605-3.347 3.582 0 2.193 1.41 3.543 3.288 3.543.98 0 1.625-.254 2.114-.47l.294 1.292z"/>
        </svg>
    </svg>
    <svg width="8" height="11" xmlns="http://www.w3.org/2000/svg"
         viewBox="0 0.256 8 10.487" fill="#a0a8ae" x="352" y="224">
        <svg xmlns="http://www.w3.org/2000/svg" width="8" height="11"
             viewBox="0.198 0.665 7.555 9.904">
            <path paint-order="stroke fill markers" fill-rule="evenodd"
                  d="M6.188 10.354L6.05 9.16h-.059c-.529.743-1.546 1.409-2.897 1.409-1.918 0-2.897-1.35-2.897-2.72 0-2.291 2.036-3.544 5.696-3.524v-.196c0-.783-.215-2.192-2.153-2.192-.88 0-1.801.274-2.467.705l-.39-1.136C1.665.997 2.801.665 3.994.665c2.897 0 3.602 1.977 3.602 3.875v3.543c0 .822.039 1.625.156 2.27H6.188zm-.255-4.835c-1.879-.04-4.012.294-4.012 2.134 0 1.115.744 1.644 1.624 1.644 1.234 0 2.016-.783 2.29-1.586.059-.176.098-.372.098-.548V5.52z"/>
        </svg>
    </svg>
    <svg width="6" height="11" xmlns="http://www.w3.org/2000/svg"
         viewBox="0.3 0 5.4 11" fill="#a0a8ae" x="346" y="224">
        <svg xmlns="http://www.w3.org/2000/svg" width="6" height="11"
             viewBox="0.561 0.665 4.756 9.689">
            <path paint-order="stroke fill markers" fill-rule="evenodd"
                  d="M.64 3.836C.64 2.72.62 1.76.56.88h1.507l.059 1.86h.079C2.636 1.467 3.673.665 4.828.665c.196 0 .333.02.49.059v1.624a2.583 2.583 0 0 0-.588-.059c-1.213 0-2.074.92-2.31 2.212-.039.235-.077.509-.077.803v5.05H.64V3.836z"/>
        </svg>
    </svg>
    <svg width="6" height="13" xmlns="http://www.w3.org/2000/svg"
         viewBox="0.053 0 5.894 13" fill="#a0a8ae" x="339" y="222">
        <svg xmlns="http://www.w3.org/2000/svg" width="6" height="13"
             viewBox="0.084 0.159 5.618 12.39">
            <path paint-order="stroke fill markers" fill-rule="evenodd"
                  d="M3.236.16v2.72h2.466v1.311H3.236v5.11c0 1.173.333 1.84 1.292 1.84.45 0 .782-.06.998-.118l.078 1.291c-.332.138-.86.235-1.526.235-.803 0-1.449-.254-1.86-.724-.49-.509-.665-1.35-.665-2.466V4.19H.084v-1.31h1.469V.61L3.236.16z"/>
        </svg>
    </svg>
    <svg width="10" height="15" xmlns="http://www.w3.org/2000/svg"
         viewBox="0.246 0 9.507 15" fill="#5a778b" x="328" y="220">
        <svg xmlns="http://www.w3.org/2000/svg" width="10" height="15"
             viewBox="0.437 0.457 8.945 14.112">
            <path paint-order="stroke fill markers" fill-rule="evenodd"
                  d="M9.304.457v11.45c0 .842.02 1.8.078 2.447H7.836l-.078-1.645h-.04c-.528 1.057-1.682 1.86-3.229 1.86-2.29 0-4.051-1.938-4.051-4.815-.02-3.152 1.937-5.09 4.247-5.09 1.449 0 2.427.686 2.858 1.45h.038V.456h1.723zm-1.723 8.28c0-.216-.019-.51-.078-.725C7.25 6.916 6.31 6.015 5.018 6.015c-1.782 0-2.838 1.566-2.838 3.66 0 1.919.939 3.504 2.798 3.504 1.156 0 2.212-.763 2.525-2.055.06-.235.078-.47.078-.744V8.736z"/>
        </svg>
    </svg>
    <svg width="12" height="14" xmlns="http://www.w3.org/2000/svg"
         viewBox="0.143 0 11.715 14" fill="#5a778b" x="316" y="221">
        <svg xmlns="http://www.w3.org/2000/svg" width="12" height="14"
             viewBox="0.439 0.161 11.039 13.193">
            <path paint-order="stroke fill markers" fill-rule="evenodd"
                  d="M3.571 9.204l-1.37 4.15H.439L4.921.16h2.056l4.502 13.193h-1.82l-1.41-4.15H3.57zm4.326-1.33L6.605 4.075c-.294-.861-.49-1.644-.685-2.408h-.04a39.948 39.948 0 0 1-.665 2.388L3.923 7.873h3.974z"/>
        </svg>
    </svg>
    <svg width="30" height="37" xmlns="http://www.w3.org/2000/svg"
         viewBox="0.579 0 28.842 37" fill="#3c6982" x="279" y="207">
        <svg xmlns="http://www.w3.org/2000/svg" width="30" height="37"
             viewBox="0.506 0 28.51 36.574">
            <path paint-order="stroke fill markers" fill-rule="evenodd"
                  d="M29.016 25.315l-14.253 11.26L.506 25.314 11.023 2.403a4.11 4.11 0 0 1 7.476 0l10.517 22.912z"/>
        </svg>
    </svg>
    <svg width="24" height="26" xmlns="http://www.w3.org/2000/svg"
         viewBox="0 0.028 24 25.945" fill="#05466b" x="270" y="232">
        <svg xmlns="http://www.w3.org/2000/svg" width="24" height="26"
             viewBox="0 0.315 23.76 25.685">
            <path paint-order="stroke fill markers" fill-rule="evenodd"
                  d="M23.76 11.574L6.69 25.084c-3.392 2.685-8.096-1.01-6.29-4.94L9.505.314l14.254 11.26z"/>
        </svg>
    </svg>
    <svg width="25" height="26" xmlns="http://www.w3.org/2000/svg"
         viewBox="0.482 0 24.036 26" fill="#a0a8ae" x="293" y="232">
        <svg xmlns="http://www.w3.org/2000/svg" width="25" height="26" viewBox="0.76 0.299 23.76 25.701">
            <path paint-order="stroke fill markers" fill-rule="evenodd"
                  d="M17.833 25.1L.76 11.575 15.013.3l9.107 19.845c1.805 3.93-2.899 7.625-6.29 4.94l.003.017"/>
        </svg>
    </svg>
</svg>